<?xml version="1.0" standalone="no"?>
<!DOCTYPE svg PUBLIC "-//W3C//DTD SVG 20010904//EN"
 "http://www.w3.org/TR/2001/REC-SVG-20010904/DTD/svg10.dtd">
<svg version="1.0" xmlns="http://www.w3.org/2000/svg"
 width="766.000000pt" height="639.000000pt" viewBox="0 0 766.000000 639.000000"
 preserveAspectRatio="xMidYMid meet">

<g transform="translate(0.000000,639.000000) scale(0.100000,-0.100000)"
fill="#000000" stroke="none">
<path d="M680 6295 c-198 -18 -328 -41 -505 -90 -27 -7 -64 -16 -82 -20 -20
-4 -35 -14 -39 -27 -11 -34 7 -40 90 -29 43 6 152 11 244 11 509 1 1042 -159
1425 -427 26 -18 71 -49 100 -70 106 -74 271 -209 370 -302 249 -236 323 -323
881 -1026 134 -170 469 -610 838 -1105 125 -168 231 -309 236 -315 4 -5 41
-57 82 -114 41 -58 92 -128 112 -155 20 -28 57 -80 83 -116 449 -633 876
-1155 1139 -1392 55 -51 107 -98 114 -105 7 -7 22 -13 33 -13 19 0 19 33 19
2119 0 1238 -4 2122 -9 2125 -13 9 -557 10 -570 2 -8 -5 -11 -298 -11 -1067 0
-865 -2 -1059 -13 -1059 -7 0 -27 19 -44 43 -18 23 -95 125 -173 227 -78 102
-195 255 -259 340 -474 627 -706 918 -926 1164 -5 6 -48 54 -95 106 -135 152
-328 350 -481 495 -118 112 -282 238 -404 310 -33 20 -78 47 -100 61 -38 23
-254 130 -323 160 -17 8 -47 21 -65 29 -35 16 -62 25 -237 84 -63 21 -131 42
-150 46 -19 4 -55 13 -80 20 -43 13 -183 42 -315 65 -207 37 -624 49 -885 25z"/>
<path d="M1767 5333 c-13 -12 -8 -4225 4 -4240 9 -10 70 -13 295 -13 l284 0 1
1028 c0 565 1 1045 2 1066 2 46 20 57 39 23 7 -13 25 -40 40 -58 114 -146 163
-209 285 -370 700 -925 799 -1049 1163 -1454 200 -222 501 -519 620 -611 106
-81 252 -184 280 -197 8 -4 33 -18 55 -31 39 -25 279 -145 343 -172 125 -54
205 -84 219 -84 7 0 27 -6 45 -14 59 -26 258 -80 398 -110 152 -31 269 -48
440 -61 455 -37 834 3 1270 132 30 9 61 17 68 19 6 2 12 13 12 24 0 24 6 24
-155 0 -320 -48 -725 -6 -1089 112 -100 32 -205 71 -251 93 -16 8 -41 19 -55
25 -14 5 -32 14 -40 19 -8 6 -49 29 -90 52 -334 187 -750 540 -1010 857 -175
214 -255 313 -413 513 -200 254 -246 314 -526 684 -226 298 -240 318 -334 443
-51 68 -110 147 -132 175 -76 100 -442 601 -537 738 -15 21 -44 61 -65 89 -21
27 -63 83 -93 125 -66 91 -320 421 -404 525 -173 216 -436 497 -579 621 -67
59 -78 65 -90 52z"/>
</g>
</svg>
